<svg width="16" height="16" viewBox="0 0 16 16" fill="none" xmlns="http://www.w3.org/2000/svg">
<path d="M3.31621 15.6838C3.1054 15.473 3 15.2234 3 14.935C3 14.6472 3.1054 14.3979 3.31621 14.1871L9.49275 8.01054L3.29513 1.81291C3.09837 1.61616 3 1.37022 3 1.0751C3 0.779974 3.1054 0.527009 3.31621 0.316206C3.52701 0.105402 3.7766 0 4.06498 0C4.3528 0 4.60211 0.105402 4.81291 0.316206L11.8959 7.42029C11.9802 7.50461 12.0401 7.59596 12.0755 7.69433C12.1104 7.79271 12.1278 7.89811 12.1278 8.01054C12.1278 8.12297 12.1104 8.22837 12.0755 8.32675C12.0401 8.42512 11.9802 8.51647 11.8959 8.60079L4.79183 15.7049C4.59508 15.9016 4.3528 16 4.06498 16C3.7766 16 3.52701 15.8946 3.31621 15.6838Z" fill="#838383"/>
</svg>
