<svg width="40" height="40" viewBox="0 0 40 40" fill="none" xmlns="http://www.w3.org/2000/svg">
<path d="M20 0C22.6263 2.84258e-05 25.2269 0.51741 27.6533 1.52246C30.0797 2.5275 32.2845 4.0004 34.1416 5.85742C35.9988 7.71457 37.4725 9.92019 38.4775 12.3467C39.4825 14.773 40 17.3738 40 20C40 22.6263 39.4825 25.2269 38.4775 27.6533C37.4725 30.0798 35.9988 32.2845 34.1416 34.1416C32.2845 35.9988 30.0798 37.4725 27.6533 38.4775C25.2269 39.4825 22.6263 40 20 40C17.3738 40 14.773 39.4825 12.3467 38.4775C9.92019 37.4725 7.71457 35.9988 5.85742 34.1416C4.0004 32.2845 2.5275 30.0797 1.52246 27.6533C0.51741 25.2269 2.83894e-05 22.6263 0 20C-3.91345e-08 17.3737 0.517483 14.7731 1.52246 12.3467C2.52754 9.92019 4.00027 7.71457 5.85742 5.85742C7.71457 4.00027 9.92019 2.52754 12.3467 1.52246C14.7731 0.517483 17.3737 0 20 0ZM20 3C17.7676 3 15.5566 3.43963 13.4941 4.29395C11.4317 5.14826 9.55805 6.40093 7.97949 7.97949C6.40093 9.55805 5.14826 11.4317 4.29395 13.4941C3.43963 15.5566 3 17.7676 3 20C3.00003 22.2322 3.43976 24.4426 4.29395 26.5049C5.14826 28.5674 6.40092 30.4419 7.97949 32.0205C9.55796 33.5989 11.4318 34.8508 13.4941 35.7051C15.5566 36.5594 17.7676 37 20 37C22.2323 37 24.4425 36.5593 26.5049 35.7051C28.5674 34.8508 30.4419 33.5991 32.0205 32.0205C33.5991 30.4419 34.8508 28.5674 35.7051 26.5049C36.5593 24.4425 37 22.2323 37 20C37 17.7676 36.5594 15.5566 35.7051 13.4941C34.8508 11.4318 33.5989 9.55796 32.0205 7.97949C30.4419 6.40092 28.5674 5.14826 26.5049 4.29395C24.4426 3.43976 22.2322 3.00003 20 3ZM26.9102 14.54H21.3604V30.5H17.7002V14.54H12.2998V11.5996H26.9102V14.54Z" fill="url(#paint0_linear_6340_2683)"/>
<defs>
<linearGradient id="paint0_linear_6340_2683" x1="46.4286" y1="20" x2="-2.5" y2="20" gradientUnits="userSpaceOnUse">
<stop stop-color="#FF3384"/>
<stop offset="0.491005" stop-color="#A68CDE"/>
<stop offset="1" stop-color="#00EDE8"/>
</linearGradient>
</defs>
</svg>
