<svg width="40" height="40" viewBox="0 0 40 40" fill="none" xmlns="http://www.w3.org/2000/svg">
<g clip-path="url(#clip0_6364_12320)">
<path fill-rule="evenodd" clip-rule="evenodd" d="M25.2354 8.19922C27.3338 8.1995 29.0352 9.90051 29.0352 11.999V28.2949C29.0348 30.3931 27.3336 32.0944 25.2354 32.0947H14C11.9016 32.0947 10.2006 30.3933 10.2002 28.2949V11.999C10.2002 9.90034 11.9013 8.19922 14 8.19922H25.2354ZM14 9.99902C12.8954 9.99902 12 10.8945 12 11.999V28.2949L12.0107 28.499C12.1065 29.4402 12.8546 30.1888 13.7959 30.2842L14 30.2949H25.2354C26.2705 30.2947 27.1221 29.5072 27.2246 28.499L27.2354 28.2949V11.999C27.2354 10.9636 26.4479 10.1123 25.4395 10.0098L25.2354 9.99902H14ZM19.7051 25.5215C20.5335 25.5215 21.2051 26.1931 21.2051 27.0215V27.1582C21.2049 27.9865 20.5334 28.6582 19.7051 28.6582H15.1758C14.3476 28.6581 13.676 27.9864 13.6758 27.1582V27.0215C13.6758 26.1931 14.3475 25.5216 15.1758 25.5215H19.7051ZM24.0586 25.5713C24.8593 25.5714 25.5088 26.2208 25.5088 27.0215V27.1582C25.5086 27.9588 24.8592 28.6073 24.0586 28.6074H23.8818C23.0812 28.6074 22.4318 27.9588 22.4316 27.1582V27.0215C22.4316 26.2207 23.081 25.5713 23.8818 25.5713H24.0586ZM23.8818 26.4717C23.5781 26.4717 23.332 26.7177 23.332 27.0215V27.1582C23.3322 27.4618 23.5782 27.708 23.8818 27.708H24.0586C24.3621 27.7079 24.6082 27.4617 24.6084 27.1582V27.0215C24.6084 26.7178 24.3622 26.4718 24.0586 26.4717H23.8818ZM15.1758 26.5215C14.8997 26.5216 14.6758 26.7454 14.6758 27.0215V27.1582C14.676 27.4341 14.8999 27.6581 15.1758 27.6582H19.7051C19.9811 27.6582 20.2049 27.4342 20.2051 27.1582V27.0215C20.2051 26.7453 19.9812 26.5215 19.7051 26.5215H15.1758ZM15.3525 21.2988C16.1532 21.299 16.8027 21.9483 16.8027 22.749V22.8857C16.8024 23.6862 16.153 24.3348 15.3525 24.335H15.1758C14.3753 24.3348 13.7259 23.6862 13.7256 22.8857V22.749C13.7256 21.9483 14.3751 21.299 15.1758 21.2988H15.3525ZM19.7061 21.2988C20.5066 21.2992 21.1562 21.9484 21.1562 22.749V22.8857C21.1559 23.6861 20.5064 24.3346 19.7061 24.335H19.5293C18.7287 24.335 18.0794 23.6863 18.0791 22.8857V22.749C18.0791 21.9482 18.7285 21.2988 19.5293 21.2988H19.7061ZM24.0586 21.2988C24.8593 21.299 25.5088 21.9483 25.5088 22.749V22.8857C25.5085 23.6862 24.8591 24.3348 24.0586 24.335H23.8818C23.0813 24.3349 22.432 23.6863 22.4316 22.8857V22.749C22.4316 21.9482 23.081 21.2989 23.8818 21.2988H24.0586ZM15.1758 22.1992C14.8721 22.1993 14.626 22.4453 14.626 22.749V22.8857C14.6263 23.1891 14.8723 23.4354 15.1758 23.4355H15.3525C15.656 23.4354 15.902 23.1891 15.9023 22.8857V22.749C15.9023 22.4454 15.6562 22.1994 15.3525 22.1992H15.1758ZM19.5293 22.1992C19.2255 22.1992 18.9795 22.4453 18.9795 22.749V22.8857C18.9798 23.1892 19.2257 23.4355 19.5293 23.4355H19.7061C20.0093 23.4352 20.2555 23.189 20.2559 22.8857V22.749C20.2559 22.4455 20.0095 22.1996 19.7061 22.1992H19.5293ZM23.8818 22.1992C23.5781 22.1993 23.332 22.4453 23.332 22.749V22.8857C23.3324 23.1892 23.5783 23.4355 23.8818 23.4355H24.0586C24.362 23.4354 24.6081 23.1891 24.6084 22.8857V22.749C24.6084 22.4454 24.3622 22.1994 24.0586 22.1992H23.8818ZM24.0586 11.5352C24.9419 11.5354 25.658 12.2514 25.6582 13.1348V15.4072C25.6582 16.2907 24.942 17.0076 24.0586 17.0078H15.1758C14.2922 17.0077 13.5762 16.2908 13.5762 15.4072V13.1348C13.5764 12.2514 14.2923 11.5353 15.1758 11.5352H24.0586ZM15.1758 12.7344C14.9551 12.7345 14.7756 12.9141 14.7754 13.1348V15.4072C14.7754 15.6281 14.955 15.8075 15.1758 15.8076H24.0586C24.2793 15.8074 24.458 15.628 24.458 15.4072V13.1348C24.4578 12.9142 24.2792 12.7346 24.0586 12.7344H15.1758Z" fill="url(#paint0_linear_6364_12320)"/>
<path fill-rule="evenodd" clip-rule="evenodd" d="M20 0.601562C22.5476 0.601562 25.0701 1.10417 27.4238 2.0791C29.7775 3.05404 31.9163 4.48272 33.7178 6.28418C35.5192 8.08564 36.9479 10.2244 37.9229 12.5781C38.8978 14.9318 39.4004 17.4543 39.4004 20.002C39.4004 22.5496 38.8978 25.0721 37.9229 27.4258C36.9479 29.7795 35.5192 31.9183 33.7178 33.7197C31.9163 35.5212 29.7775 36.9499 27.4238 37.9248C25.0701 38.8997 22.5476 39.4023 20 39.4023C17.4524 39.4023 14.9299 38.8997 12.5762 37.9248C10.2225 36.9499 8.08368 35.5212 6.28223 33.7197C4.48077 31.9183 3.05209 29.7795 2.07715 27.4258C1.10222 25.0721 0.599609 22.5496 0.599609 20.002C0.599609 17.4543 1.10222 14.9318 2.07715 12.5781C3.05209 10.2244 4.48077 8.08564 6.28223 6.28418C8.08368 4.48272 10.2225 3.05404 12.5762 2.0791C14.9299 1.10417 17.4524 0.601562 20 0.601562ZM20 3.40234C17.8201 3.40234 15.6615 3.83179 13.6475 4.66602C11.6335 5.50024 9.80313 6.72226 8.26172 8.26367C6.72031 9.80508 5.49829 11.6355 4.66406 13.6494C3.82983 15.6634 3.40039 17.822 3.40039 20.002C3.40039 22.1819 3.82983 24.3405 4.66406 26.3545C5.49829 28.3684 6.72031 30.1988 8.26172 31.7402C9.80313 33.2816 11.6335 34.5037 13.6475 35.3379C15.6615 36.1721 17.8201 36.6016 20 36.6016C22.1799 36.6016 24.3385 36.1721 26.3525 35.3379C28.3665 34.5037 30.1969 33.2816 31.7383 31.7402C33.2797 30.1988 34.5017 28.3684 35.3359 26.3545C36.1702 24.3405 36.5996 22.1819 36.5996 20.002C36.5996 17.822 36.1702 15.6634 35.3359 13.6494C34.5017 11.6355 33.2797 9.80508 31.7383 8.26367C30.1969 6.72226 28.3665 5.50024 26.3525 4.66602C24.3385 3.83179 22.1799 3.40234 20 3.40234Z" fill="url(#paint1_linear_6364_12320)"/>
</g>
<defs>
<linearGradient id="paint0_linear_6364_12320" x1="46.4646" y1="22.3796" x2="-5.95079" y2="22.3796" gradientUnits="userSpaceOnUse">
<stop stop-color="#FF3384"/>
<stop offset="0.491005" stop-color="#A68CDE"/>
<stop offset="1" stop-color="#00EDE8"/>
</linearGradient>
<linearGradient id="paint1_linear_6364_12320" x1="45.6362" y1="20.002" x2="-1.82544" y2="20.002" gradientUnits="userSpaceOnUse">
<stop stop-color="#FF3384"/>
<stop offset="0.491005" stop-color="#A68CDE"/>
<stop offset="1" stop-color="#00EDE8"/>
</linearGradient>
<clipPath id="clip0_6364_12320">
<rect width="40" height="40" fill="white"/>
</clipPath>
</defs>
</svg>
