<svg width="40" height="40" viewBox="0 0 40 40" fill="none" xmlns="http://www.w3.org/2000/svg">
<path d="M20 0C22.6263 2.84258e-05 25.2269 0.51741 27.6533 1.52246C30.0797 2.5275 32.2845 4.0004 34.1416 5.85742C35.9988 7.71457 37.4725 9.92019 38.4775 12.3467C39.4825 14.773 40 17.3738 40 20C40 22.6263 39.4825 25.2269 38.4775 27.6533C37.4725 30.0798 35.9988 32.2845 34.1416 34.1416C32.2845 35.9988 30.0798 37.4725 27.6533 38.4775C25.2269 39.4825 22.6263 40 20 40C17.3738 40 14.773 39.4825 12.3467 38.4775C9.92019 37.4725 7.71457 35.9988 5.85742 34.1416C4.0004 32.2845 2.5275 30.0797 1.52246 27.6533C0.51741 25.2269 2.83894e-05 22.6263 0 20C-3.91345e-08 17.3737 0.517483 14.7731 1.52246 12.3467C2.52754 9.92019 4.00027 7.71457 5.85742 5.85742C7.71457 4.00027 9.92019 2.52754 12.3467 1.52246C14.7731 0.517483 17.3737 0 20 0ZM20 3C17.7676 3 15.5566 3.43963 13.4941 4.29395C11.4317 5.14826 9.55805 6.40093 7.97949 7.97949C6.40093 9.55805 5.14826 11.4317 4.29395 13.4941C3.43963 15.5566 3 17.7676 3 20C3.00003 22.2322 3.43976 24.4426 4.29395 26.5049C5.14826 28.5674 6.40092 30.4419 7.97949 32.0205C9.55796 33.5989 11.4318 34.8508 13.4941 35.7051C15.5566 36.5594 17.7676 37 20 37C22.2323 37 24.4425 36.5593 26.5049 35.7051C28.5674 34.8508 30.4419 33.5991 32.0205 32.0205C33.5991 30.4419 34.8508 28.5674 35.7051 26.5049C36.5593 24.4425 37 22.2323 37 20C37 17.7676 36.5594 15.5566 35.7051 13.4941C34.8508 11.4318 33.5989 9.55796 32.0205 7.97949C30.4419 6.40092 28.5674 5.14826 26.5049 4.29395C24.4426 3.43976 22.2322 3.00003 20 3ZM20.5801 10.5996C22.5199 10.5996 24.05 11.0298 25.1699 11.8896C26.3099 12.7296 26.8799 13.9302 26.8799 15.4902C26.8799 16.0701 26.78 16.5899 26.5801 17.0498C26.4001 17.4897 26.15 17.8798 25.8301 18.2197C25.5101 18.5397 25.1397 18.8103 24.7197 19.0303C24.2998 19.2502 23.8696 19.4201 23.4297 19.54C23.9696 19.64 24.48 19.8098 24.96 20.0498C25.3973 20.2597 25.7811 20.531 26.1113 20.8633L26.3887 21.1562C26.7013 21.5061 26.9452 21.9173 27.1201 22.3896C27.3401 22.9096 27.4502 23.5104 27.4502 24.1904C27.4501 24.9701 27.2802 25.6899 26.9404 26.3496C26.6004 26.9896 26.12 27.5503 25.5 28.0303C24.88 28.4902 24.1299 28.8504 23.25 29.1104C22.3901 29.3703 21.4402 29.5 20.4004 29.5H14.1904V10.5996H20.5801ZM17.8496 26.6797H19.9199C20.4398 26.6797 20.9298 26.6302 21.3896 26.5303C21.8496 26.4303 22.2498 26.2698 22.5898 26.0498C22.9298 25.8298 23.1901 25.5397 23.3701 25.1797C23.57 24.7998 23.6699 24.3499 23.6699 23.8301C23.6699 23.3302 23.5598 22.9103 23.3398 22.5703C23.1198 22.2103 22.8297 21.9202 22.4697 21.7002C22.1098 21.4802 21.6899 21.3197 21.21 21.2197C20.73 21.1197 20.2299 21.0703 19.71 21.0703H17.8496V26.6797ZM17.8496 18.2803H19.8896C20.8096 18.2803 21.5802 18.09 22.2002 17.71C22.8201 17.31 23.1299 16.6597 23.1299 15.7598C23.1298 14.9799 22.85 14.3995 22.29 14.0195C21.7501 13.6196 20.9896 13.4199 20.0098 13.4199H17.8496V18.2803Z" fill="url(#paint0_linear_6320_2885)"/>
<defs>
<linearGradient id="paint0_linear_6320_2885" x1="46.4286" y1="20" x2="-2.5" y2="20" gradientUnits="userSpaceOnUse">
<stop stop-color="#FF3384"/>
<stop offset="0.491005" stop-color="#A68CDE"/>
<stop offset="1" stop-color="#00EDE8"/>
</linearGradient>
</defs>
</svg>
