<svg width="40" height="40" viewBox="0 0 40 40" fill="none" xmlns="http://www.w3.org/2000/svg">
<g clip-path="url(#clip0_1422_7155)">
<path fill-rule="evenodd" clip-rule="evenodd" d="M-0.5 20C-0.5 8.68197 8.68199 -0.5 20 -0.5C31.318 -0.5 40.5 8.68197 40.5 20C40.5 31.318 31.318 40.4999 20 40.4999C8.68199 40.4999 -0.5 31.318 -0.5 20ZM20 2.5C10.3388 2.5 2.5 10.3388 2.5 20C2.5 29.6611 10.3388 37.4999 20 37.4999C29.6612 37.4999 37.5 29.6611 37.5 20C37.5 10.3388 29.6612 2.5 20 2.5ZM15.334 12.6769C15.334 11.8485 16.0056 11.1769 16.834 11.1769H29.5003C30.3287 11.1769 31.0003 11.8485 31.0003 12.6769C31.0003 13.5053 30.3287 14.1769 29.5003 14.1769H16.834C16.0056 14.1769 15.334 13.5053 15.334 12.6769ZM15.334 19.8017C15.334 18.9733 16.0056 18.3017 16.834 18.3017H29.5003C30.3287 18.3017 31.0003 18.9733 31.0003 19.8017C31.0003 20.6301 30.3287 21.3017 29.5003 21.3017H16.834C16.0056 21.3017 15.334 20.6301 15.334 19.8017ZM15.334 26.8275C15.334 25.9991 16.0056 25.3275 16.834 25.3275H29.5003C30.3287 25.3275 31.0003 25.9991 31.0003 26.8275C31.0003 27.6559 30.3287 28.3275 29.5003 28.3275H16.834C16.0056 28.3275 15.334 27.6559 15.334 26.8275ZM12.248 12.6769C12.248 13.2061 11.819 13.6351 11.2898 13.6351C10.7605 13.6351 10.3315 13.2061 10.3315 12.6769C10.3315 12.1476 10.7605 11.7186 11.2898 11.7186C11.819 11.7186 12.248 12.1476 12.248 12.6769ZM11.2898 10.1351C9.88602 10.1351 8.74805 11.2731 8.74805 12.6769C8.74805 14.0806 9.88602 15.2186 11.2898 15.2186C12.6935 15.2186 13.8315 14.0806 13.8315 12.6769C13.8315 11.2731 12.6935 10.1351 11.2898 10.1351ZM11.2898 20.8592C11.819 20.8592 12.248 20.4302 12.248 19.901C12.248 19.3717 11.819 18.9427 11.2898 18.9427C10.7605 18.9427 10.3315 19.3717 10.3315 19.901C10.3315 20.4302 10.7605 20.8592 11.2898 20.8592ZM8.74805 19.901C8.74805 18.4972 9.88602 17.3592 11.2898 17.3592C12.6935 17.3592 13.8315 18.4972 13.8315 19.901C13.8315 21.3047 12.6935 22.4427 11.2898 22.4427C9.88602 22.4427 8.74805 21.3047 8.74805 19.901ZM12.248 26.9268C12.248 27.4561 11.819 27.8851 11.2898 27.8851C10.7605 27.8851 10.3315 27.4561 10.3315 26.9268C10.3315 26.3976 10.7605 25.9685 11.2898 25.9685C11.819 25.9685 12.248 26.3976 12.248 26.9268ZM11.2898 24.3851C9.88602 24.3851 8.74805 25.5231 8.74805 26.9268C8.74805 28.3306 9.88602 29.4685 11.2898 29.4685C12.6935 29.4685 13.8315 28.3306 13.8315 26.9268C13.8315 25.5231 12.6935 24.3851 11.2898 24.3851Z" fill="url(#paint0_linear_1422_7155)"/>
</g>
<defs>
<linearGradient id="paint0_linear_1422_7155" x1="46.4286" y1="20" x2="-2.5" y2="20" gradientUnits="userSpaceOnUse">
<stop stop-color="#FF3384"/>
<stop offset="0.491005" stop-color="#A68CDE"/>
<stop offset="1" stop-color="#00EDE8"/>
</linearGradient>
<clipPath id="clip0_1422_7155">
<rect width="40" height="40" rx="20" fill="white"/>
</clipPath>
</defs>
</svg>
