<svg width="40" height="40" viewBox="0 0 40 40" fill="none" xmlns="http://www.w3.org/2000/svg">
<circle cx="20" cy="20" r="20" fill="white" fill-opacity="0.7"/>
<g opacity="0.6">
<path d="M10.4903 33.1905V34.4632C13.256 36.2303 16.4903 37.1905 19.8237 37.1905C22.0999 37.1905 24.3539 36.7422 26.4569 35.8711C27.3987 35.481 28.302 35.0094 29.157 34.4631V33.1905C29.157 31.4224 28.4546 29.7267 27.2044 28.4765C25.9541 27.2262 24.2585 26.5238 22.4903 26.5238H17.157C15.3889 26.5238 13.6932 27.2262 12.443 28.4765C11.1927 29.7267 10.4903 31.4224 10.4903 33.1905Z" fill="url(#paint0_linear_1422_7133)"/>
<path d="M16.9952 11.6954C16.2451 12.4456 15.8237 13.463 15.8237 14.5238C15.8237 15.5847 16.2451 16.6021 16.9952 17.3523C17.7454 18.1024 18.7628 18.5238 19.8237 18.5238C20.8845 18.5238 21.902 18.1024 22.6521 17.3523C23.4022 16.6021 23.8237 15.5847 23.8237 14.5238C23.8237 13.463 23.4022 12.4456 22.6521 11.6954C21.902 10.9453 20.8845 10.5238 19.8237 10.5238C18.7628 10.5238 17.7454 10.9453 16.9952 11.6954Z" fill="url(#paint1_linear_1422_7133)"/>
<path fill-rule="evenodd" clip-rule="evenodd" d="M8.7481 33.1905C9.30388 33.6522 9.88592 34.077 10.4903 34.4632V33.1905C10.4903 31.4224 11.1927 29.7267 12.443 28.4765C13.6932 27.2262 15.3889 26.5238 17.157 26.5238H22.4903C24.2585 26.5238 25.9541 27.2262 27.2044 28.4765C28.4546 29.7267 29.157 31.4224 29.157 33.1905V34.4631C29.7632 34.0757 30.3451 33.6508 30.8992 33.1905C31.2047 32.9367 31.5019 32.6721 31.7899 32.3972C31.6036 30.2125 30.6524 28.1532 29.09 26.5908C27.3397 24.8405 24.9657 23.8572 22.4903 23.8572H17.157C14.6817 23.8572 12.3077 24.8405 10.5573 26.5908C8.99496 28.1532 8.0437 30.2125 7.85742 32.3972C8.14598 32.6726 8.44309 32.9371 8.7481 33.1905ZM19.8237 7.85718C18.0556 7.85718 16.3599 8.55956 15.1096 9.8098C13.8594 11.06 13.157 12.7557 13.157 14.5238C13.157 16.292 13.8594 17.9876 15.1096 19.2379C16.3599 20.4881 18.0556 21.1905 19.8237 21.1905C21.5918 21.1905 23.2875 20.4881 24.5377 19.2379C25.788 17.9876 26.4903 16.292 26.4903 14.5238C26.4903 12.7557 25.788 11.06 24.5377 9.8098C23.2875 8.55956 21.5918 7.85718 19.8237 7.85718ZM15.8237 14.5238C15.8237 13.463 16.2451 12.4456 16.9952 11.6954C17.7454 10.9453 18.7628 10.5238 19.8237 10.5238C20.8845 10.5238 21.902 10.9453 22.6521 11.6954C23.4022 12.4456 23.8237 13.463 23.8237 14.5238C23.8237 15.5847 23.4022 16.6021 22.6521 17.3523C21.902 18.1024 20.8845 18.5238 19.8237 18.5238C18.7628 18.5238 17.7454 18.1024 16.9952 17.3523C16.2451 16.6021 15.8237 15.5847 15.8237 14.5238Z" fill="url(#paint2_linear_1422_7133)"/>
</g>
<defs>
<linearGradient id="paint0_linear_1422_7133" x1="35.6362" y1="22.5238" x2="6.36164" y2="22.5238" gradientUnits="userSpaceOnUse">
<stop stop-color="#FF3384"/>
<stop offset="0.491005" stop-color="#A68CDE"/>
<stop offset="1" stop-color="#00EDE8"/>
</linearGradient>
<linearGradient id="paint1_linear_1422_7133" x1="35.6362" y1="22.5238" x2="6.36164" y2="22.5238" gradientUnits="userSpaceOnUse">
<stop stop-color="#FF3384"/>
<stop offset="0.491005" stop-color="#A68CDE"/>
<stop offset="1" stop-color="#00EDE8"/>
</linearGradient>
<linearGradient id="paint2_linear_1422_7133" x1="35.6362" y1="22.5238" x2="6.36164" y2="22.5238" gradientUnits="userSpaceOnUse">
<stop stop-color="#FF3384"/>
<stop offset="0.491005" stop-color="#A68CDE"/>
<stop offset="1" stop-color="#00EDE8"/>
</linearGradient>
</defs>
</svg>
