<svg width="40" height="36" viewBox="0 0 40 36" fill="none" xmlns="http://www.w3.org/2000/svg">
<path fill-rule="evenodd" clip-rule="evenodd" d="M24.8923 34.2107C22.7077 35.1047 20.3652 35.5617 18.0004 35.5553C15.6357 35.5617 13.2931 35.1047 11.1085 34.2107C8.92389 33.3167 6.9406 32.0034 5.27354 30.347C1.87384 26.9914 0 22.5277 0 17.7776C0 13.0276 1.87384 8.56391 5.27354 5.20826C8.67124 1.85064 13.1908 0 18.0004 0C22.81 0 27.3296 1.85064 30.7273 5.20826L27.8996 8.00102C25.2558 5.38997 21.7401 3.95015 18.0004 3.95015C14.2608 3.95015 10.7451 5.38997 8.10129 8.00102C5.45752 10.6121 3.99965 14.0842 3.99965 17.7776C3.99965 21.471 5.45752 24.9432 8.10129 27.5542C10.7451 30.1653 14.2608 31.6051 18.0004 31.6051C21.7401 31.6051 25.2558 30.1653 27.8996 27.5542L30.7273 30.347C29.0602 32.0034 27.077 33.3167 24.8923 34.2107ZM30.0006 9.87749L39.9997 17.7778L30.0006 25.6781V19.7529H12.0022V15.8027H30.0006V9.87749Z" fill="url(#paint0_linear_1422_7673)"/>
<defs>
<linearGradient id="paint0_linear_1422_7673" x1="46.4282" y1="17.7777" x2="-2.49998" y2="17.7777" gradientUnits="userSpaceOnUse">
<stop stop-color="#FF3384"/>
<stop offset="0.491005" stop-color="#A68CDE"/>
<stop offset="1" stop-color="#00EDE8"/>
</linearGradient>
</defs>
</svg>
