<svg width="40" height="40" viewBox="0 0 40 40" fill="none" xmlns="http://www.w3.org/2000/svg">
<g clip-path="url(#clip0_1386_8643)">
<path d="M8 34.6667V36H10.6667V34.6667H8ZM29.3333 34.6667V36H32V34.6667H29.3333ZM10.6667 34.6667V33.3333H8V34.6667H10.6667ZM17.3333 26.6667H22.6667V24H17.3333V26.6667ZM29.3333 33.3333V34.6667H32V33.3333H29.3333ZM22.6667 26.6667C24.4348 26.6667 26.1305 27.369 27.3807 28.6193C28.631 29.8695 29.3333 31.5652 29.3333 33.3333H32C32 30.858 31.0167 28.484 29.2663 26.7337C27.516 24.9833 25.142 24 22.6667 24V26.6667ZM10.6667 33.3333C10.6667 31.5652 11.369 29.8695 12.6193 28.6193C13.8695 27.369 15.5652 26.6667 17.3333 26.6667V24C14.858 24 12.484 24.9833 10.7337 26.7337C8.98333 28.484 8 30.858 8 33.3333H10.6667ZM20 8C18.2319 8 16.5362 8.70238 15.286 9.95262C14.0357 11.2029 13.3333 12.8986 13.3333 14.6667H16C16 13.6058 16.4214 12.5884 17.1716 11.8382C17.9217 11.0881 18.9391 10.6667 20 10.6667V8ZM26.6667 14.6667C26.6667 12.8986 25.9643 11.2029 24.714 9.95262C23.4638 8.70238 21.7681 8 20 8V10.6667C21.0609 10.6667 22.0783 11.0881 22.8284 11.8382C23.5786 12.5884 24 13.6058 24 14.6667H26.6667ZM20 21.3333C21.7681 21.3333 23.4638 20.631 24.714 19.3807C25.9643 18.1305 26.6667 16.4348 26.6667 14.6667H24C24 15.7275 23.5786 16.7449 22.8284 17.4951C22.0783 18.2452 21.0609 18.6667 20 18.6667V21.3333ZM20 18.6667C18.9391 18.6667 17.9217 18.2452 17.1716 17.4951C16.4214 16.7449 16 15.7275 16 14.6667H13.3333C13.3333 16.4348 14.0357 18.1305 15.286 19.3807C16.5362 20.631 18.2319 21.3333 20 21.3333V18.6667ZM20 37.3333C15.4029 37.3333 10.9941 35.5071 7.74348 32.2565C4.49285 29.0059 2.66667 24.5971 2.66667 20H0C0 25.3043 2.10714 30.3914 5.85786 34.1421C9.60859 37.8929 14.6957 40 20 40V37.3333ZM37.3333 20C37.3333 22.2762 36.885 24.5302 36.0139 26.6332C35.1428 28.7362 33.8661 30.647 32.2565 32.2565C30.647 33.8661 28.7362 35.1428 26.6332 36.0139C24.5302 36.885 22.2762 37.3333 20 37.3333V40C25.3043 40 30.3914 37.8929 34.1421 34.1421C37.8929 30.3914 40 25.3043 40 20H37.3333ZM20 2.66667C22.2762 2.66667 24.5302 3.11501 26.6332 3.98609C28.7362 4.85717 30.647 6.13393 32.2565 7.74348C33.8661 9.35303 35.1428 11.2638 36.0139 13.3668C36.885 15.4698 37.3333 17.7238 37.3333 20H40C40 14.6957 37.8929 9.60859 34.1421 5.85786C30.3914 2.10714 25.3043 0 20 0V2.66667ZM20 0C14.6957 0 9.60859 2.10714 5.85786 5.85786C2.10714 9.60859 0 14.6957 0 20H2.66667C2.66667 15.4029 4.49285 10.9941 7.74348 7.74348C10.9941 4.49285 15.4029 2.66667 20 2.66667V0Z" fill="url(#paint0_linear_1386_8643)"/>
</g>
<defs>
<linearGradient id="paint0_linear_1386_8643" x1="46.4286" y1="20" x2="-2.5" y2="20" gradientUnits="userSpaceOnUse">
<stop stop-color="#FF3384"/>
<stop offset="0.491005" stop-color="#A68CDE"/>
<stop offset="1" stop-color="#00EDE8"/>
</linearGradient>
<clipPath id="clip0_1386_8643">
<rect width="40" height="40" fill="white"/>
</clipPath>
</defs>
</svg>
