<svg width="40" height="40" viewBox="0 0 40 40" fill="none" xmlns="http://www.w3.org/2000/svg">
<g clip-path="url(#clip0_1422_7172)">
<path d="M20 0C8.97212 0 0 8.97212 0 20C0 31.0279 8.97212 40 20 40C31.0279 40 40 31.0279 40 20C40 8.97212 31.0279 0 20 0ZM11.5385 29.0385C11.082 29.0385 10.6359 28.9031 10.2564 28.6495C9.87688 28.396 9.5811 28.0356 9.40643 27.6139C9.23177 27.1922 9.18607 26.7282 9.27511 26.2806C9.36415 25.8329 9.58394 25.4217 9.90668 25.099C10.2294 24.7762 10.6406 24.5565 11.0883 24.4674C11.5359 24.3784 11.9999 24.4241 12.4216 24.5987C12.8433 24.7734 13.2037 25.0692 13.4572 25.4487C13.7108 25.8282 13.8462 26.2744 13.8462 26.7308C13.8462 27.3428 13.603 27.9298 13.1702 28.3626C12.7375 28.7953 12.1505 29.0385 11.5385 29.0385ZM11.5385 22.2115C11.082 22.2115 10.6359 22.0762 10.2564 21.8226C9.87688 21.569 9.5811 21.2086 9.40643 20.787C9.23177 20.3653 9.18607 19.9013 9.27511 19.4536C9.36415 19.006 9.58394 18.5948 9.90668 18.2721C10.2294 17.9493 10.6406 17.7295 11.0883 17.6405C11.5359 17.5515 11.9999 17.5972 12.4216 17.7718C12.8433 17.9465 13.2037 18.2423 13.4572 18.6218C13.7108 19.0013 13.8462 19.4474 13.8462 19.9038C13.8462 20.5159 13.603 21.1029 13.1702 21.5356C12.7375 21.9684 12.1505 22.2115 11.5385 22.2115ZM11.5385 15.1923C11.082 15.1923 10.6359 15.057 10.2564 14.8034C9.87688 14.5498 9.5811 14.1894 9.40643 13.7677C9.23177 13.3461 9.18607 12.8821 9.27511 12.4344C9.36415 11.9868 9.58394 11.5756 9.90668 11.2528C10.2294 10.9301 10.6406 10.7103 11.0883 10.6213C11.5359 10.5322 11.9999 10.5779 12.4216 10.7526C12.8433 10.9272 13.2037 11.223 13.4572 11.6025C13.7108 11.982 13.8462 12.4282 13.8462 12.8846C13.8462 13.4967 13.603 14.0836 13.1702 14.5164C12.7375 14.9492 12.1505 15.1923 11.5385 15.1923ZM29.2308 28.1731H16.9231C16.5151 28.1731 16.1237 28.011 15.8352 27.7225C15.5467 27.434 15.3846 27.0426 15.3846 26.6346C15.3846 26.2266 15.5467 25.8353 15.8352 25.5468C16.1237 25.2582 16.5151 25.0962 16.9231 25.0962H29.2308C29.6388 25.0962 30.0301 25.2582 30.3186 25.5468C30.6071 25.8353 30.7692 26.2266 30.7692 26.6346C30.7692 27.0426 30.6071 27.434 30.3186 27.7225C30.0301 28.011 29.6388 28.1731 29.2308 28.1731ZM29.2308 21.3462H16.9231C16.5151 21.3462 16.1237 21.1841 15.8352 20.8955C15.5467 20.607 15.3846 20.2157 15.3846 19.8077C15.3846 19.3997 15.5467 19.0084 15.8352 18.7198C16.1237 18.4313 16.5151 18.2692 16.9231 18.2692H29.2308C29.6388 18.2692 30.0301 18.4313 30.3186 18.7198C30.6071 19.0084 30.7692 19.3997 30.7692 19.8077C30.7692 20.2157 30.6071 20.607 30.3186 20.8955C30.0301 21.1841 29.6388 21.3462 29.2308 21.3462ZM29.2308 14.4231H16.9231C16.5151 14.4231 16.1237 14.261 15.8352 13.9725C15.5467 13.684 15.3846 13.2926 15.3846 12.8846C15.3846 12.4766 15.5467 12.0853 15.8352 11.7968C16.1237 11.5082 16.5151 11.3462 16.9231 11.3462H29.2308C29.6388 11.3462 30.0301 11.5082 30.3186 11.7968C30.6071 12.0853 30.7692 12.4766 30.7692 12.8846C30.7692 13.2926 30.6071 13.684 30.3186 13.9725C30.0301 14.261 29.6388 14.4231 29.2308 14.4231Z" fill="url(#paint0_linear_1422_7172)"/>
</g>
<defs>
<linearGradient id="paint0_linear_1422_7172" x1="46.4286" y1="20" x2="-2.5" y2="20" gradientUnits="userSpaceOnUse">
<stop stop-color="#FF3384"/>
<stop offset="0.491005" stop-color="#A68CDE"/>
<stop offset="1" stop-color="#00EDE8"/>
</linearGradient>
<clipPath id="clip0_1422_7172">
<rect width="40" height="40" fill="white"/>
</clipPath>
</defs>
</svg>
